# xmcd
#
# Track frame offsets:
#	150
#	21335
#	38134
#	50567
#	71260
#	92929
#	107863
#	123105
#	140720
#	186228
#	203631
#	227365
#	243422
#	260413
#	278384
#	300475
#	313733
#	339446
#
# Disc length: 4784 seconds
#
# Revision: 1
# Processed by: cddbd v1.5.2PL0 Copyright (c) Steve Scherf et al.
# Submitted via: audiograbber 1.83.01
#
DISCID=f812ae12
DTITLE=Poco - Indian Summer - Legend
DYEAR=2015
DGENRE=Country Rock
TTITLE0=Indian Summer
TTITLE1=Twenty Years
TTITLE2=Me And You
TTITLE3=Downfall
TTITLE4=Win Or Lose
TTITLE5=Living In The Band
TTITLE6=Stay (Night Til Noon)
TTITLE7=Find Out In Time
TTITLE8=The Dance
TTITLE9=Boomerang
TTITLE10=Spellbound
TTITLE11=Barbados
TTITLE12=Little Darlin'
TTITLE13=love Comes And Goes
TTITLE14=Heart Of The Night
TTITLE15=Crazy Love
TTITLE16=The Last Goodbye
TTITLE17=Legend
EXTD=BGO 2 Fer reissue
EXTT0=
EXTT1=
EXTT2=
EXTT3=
EXTT4=
EXTT5=
EXTT6=
EXTT7=
EXTT8=
EXTT9=
EXTT10=
EXTT11=
EXTT12=
EXTT13=
EXTT14=
EXTT15=
EXTT16=
EXTT17=
PLAYORDER=
